<?xml version="1.0" encoding="UTF-8" standalone="no"?>
<svg width="100px" height="100px" viewBox="0 0 100 100" version="1.1" xmlns="http://www.w3.org/2000/svg" xmlns:xlink="http://www.w3.org/1999/xlink">
    <!-- Generator: Sketch 3.7.1 (28215) - http://www.bohemiancoding.com/sketch -->
    <title>button</title>
    <desc>Created with Sketch.</desc>
    <defs></defs>
    <g id="Page-1" stroke="none" stroke-width="1" fill="none" fill-rule="evenodd">
        <g id="已选择需开具发票" transform="translate(-138.000000, -120.000000)" fill="#ED4445">
            <g id="Group-2" transform="translate(138.000000, 120.000000)">
                <path d="M0,50 C0,22.3857625 22.3796909,0 50,0 C77.6142375,0 100,22.3796909 100,50 C100,77.6142375 77.6203091,100 50,100 C22.3857625,100 0,77.6203091 0,50 Z M50,26 C51.6568542,26 53,27.3423094 53,29.0065012 L53,62.9934988 C53,64.6539436 51.6534829,66 50,66 C48.3431458,66 47,64.6576906 47,62.9934988 L47,29.0065012 C47,27.3460564 48.3465171,26 50,26 Z M53,76 C53,74.3431458 51.6534829,73 50,73 C48.3431458,73 47,74.3465171 47,76 C47,77.6568542 48.3465171,79 50,79 C51.6568542,79 53,77.6534829 53,76 Z" id="button"></path>
            </g>
        </g>
    </g>
</svg>