<?xml version="1.0" encoding="UTF-8" standalone="no"?>
<svg width="100px" height="100px" viewBox="0 0 100 100" version="1.1" xmlns="http://www.w3.org/2000/svg" xmlns:xlink="http://www.w3.org/1999/xlink">
    <!-- Generator: Sketch 3.7.1 (28215) - http://www.bohemiancoding.com/sketch -->
    <title>button</title>
    <desc>Created with Sketch.</desc>
    <defs></defs>
    <g id="Page-1" stroke="none" stroke-width="1" fill="none" fill-rule="evenodd">
        <g id="已选择需开具发票" transform="translate(-138.000000, -120.000000)" fill="#02C853">
            <g id="Group-2" transform="translate(138.000000, 120.000000)">
                <path d="M40.6889455,68.9315861 C40.8089876,69.1253439 40.9531222,69.3084613 41.1213203,69.4766594 C42.2905093,70.6458484 44.1912904,70.6493301 45.3615091,69.4791114 L76.4791114,38.3615091 C77.6523098,37.1883106 77.6482323,35.2928932 76.4766594,34.1213203 C75.3074704,32.9521314 73.4066894,32.9486497 72.2364707,34.1188684 L43.2989899,63.0563492 L28.3639746,48.1213339 C27.1923942,46.9497535 25.2905093,46.9521314 24.1213203,48.1213203 C22.9497475,49.2928932 22.9526981,51.1953388 24.1213339,52.3639746 L40.6889455,68.9315861 Z M0,50 C0,22.3857625 22.3796909,0 50,0 C77.6142375,0 100,22.3796909 100,50 C100,77.6142375 77.6203091,100 50,100 C22.3857625,100 0,77.6203091 0,50 Z" id="button"></path>
            </g>
        </g>
    </g>
</svg>